<?xml version="1.0" encoding="iso-8859-1"?>
<!-- Generator: Adobe Illustrator 19.0.0, SVG Export Plug-In . SVG Version: 6.00 Build 0)  -->
<svg version="1.1" id="Layer_1" xmlns="http://www.w3.org/2000/svg" xmlns:xlink="http://www.w3.org/1999/xlink" x="0px" y="0px"
	 viewBox="0 0 512 512" style="enable-background:new 0 0 512 512;" xml:space="preserve">
<path style="fill:#FFDC64;" d="M317.793,61.793v-35.31c0-4.875-3.953-8.828-8.828-8.828H44.138c-4.875,0-8.828,3.953-8.828,8.828
	v35.31c0,4.875,3.953,8.828,8.828,8.828H8.828C3.953,70.621,0,74.573,0,79.448v35.31c0,4.875,3.953,8.828,8.828,8.828h17.655
	c-4.875,0-8.828,3.953-8.828,8.828v35.31c0,4.875,3.953,8.828,8.828,8.828H8.828c-4.875,0-8.828,3.953-8.828,8.828v35.31
	c0,4.875,3.953,8.828,8.828,8.828h35.31c-4.875,0-8.828,3.953-8.828,8.828v35.31c0,4.875,3.953,8.828,8.828,8.828H8.828
	c-4.875,0-8.828,3.953-8.828,8.828v35.31c0,4.875,3.953,8.828,8.828,8.828h17.655c-4.875,0-8.828,3.953-8.828,8.828v35.31
	c0,4.875,3.953,8.828,8.828,8.828H8.828c-4.875,0-8.828,3.953-8.828,8.828v35.31c0,4.875,3.953,8.828,8.828,8.828h35.31
	c-4.875,0-8.828,3.953-8.828,8.828v35.31c0,4.875,3.953,8.828,8.828,8.828h264.828c4.875,0,8.828-3.953,8.828-8.828V238.345
	c0-4.875-3.953-8.828-8.828-8.828h-35.31c4.875,0,8.828-3.953,8.828-8.828v-35.31c0-4.875-3.953-8.828-8.828-8.828h17.655
	c4.875,0,8.828-3.953,8.828-8.828v-35.31c0-4.875-3.953-8.828-8.828-8.828h-17.655c4.875,0,8.828-3.953,8.828-8.828v-35.31
	c0-4.875-3.953-8.828-8.828-8.828h35.31C313.841,70.621,317.793,66.668,317.793,61.793z"/>
<path style="fill:#FFC850;" d="M308.966,229.517h-35.31c4.875,0,8.828-3.953,8.828-8.828v-10.007
	c-47.63,29.588-79.448,82.225-79.448,142.421c0,59.384,30.946,111.437,77.506,141.241h28.425c4.875,0,8.828-3.953,8.828-8.828
	V238.345C317.793,233.47,313.841,229.517,308.966,229.517z"/>
<g>
	<path style="fill:#FFF082;" d="M264.828,176.552h-17.655c-4.875,0-8.828-3.953-8.828-8.828v-35.31c0-4.875,3.953-8.828,8.828-8.828
		h17.655c4.875,0,8.828,3.953,8.828,8.828v35.31C273.655,172.599,269.703,176.552,264.828,176.552z"/>
	<path style="fill:#FFF082;" d="M247.172,123.586h-17.655c-4.875,0-8.828-3.953-8.828-8.828v-35.31c0-4.875,3.953-8.828,8.828-8.828
		h17.655c4.875,0,8.828,3.953,8.828,8.828v35.31C256,119.634,252.047,123.586,247.172,123.586z"/>
	<path style="fill:#FFF082;" d="M247.172,229.517h-17.655c-4.875,0-8.828-3.953-8.828-8.828v-35.31c0-4.875,3.953-8.828,8.828-8.828
		h17.655c4.875,0,8.828,3.953,8.828,8.828v35.31C256,225.565,252.047,229.517,247.172,229.517z"/>
</g>
<circle style="fill:#FFDC64;" cx="370.759" cy="353.103" r="141.241"/>
<circle style="fill:#FFC850;" cx="370.759" cy="353.103" r="123.586"/>
<circle style="fill:#FFF082;" cx="370.759" cy="353.103" r="105.931"/>
<path style="fill:#E1A546;" d="M379.586,346.661v-36.728c10.489,2.207,17.655,8.015,17.655,13.377c0,4.879,3.948,8.828,8.828,8.828
	c4.879,0,8.828-3.948,8.828-8.828c0-15.741-14.931-28.483-35.31-31.373v-0.627c0-4.879-3.948-8.828-8.828-8.828
	c-4.879,0-8.828,3.948-8.828,8.828v0.627c-20.378,2.891-35.31,15.633-35.31,31.373c0,22.251,19.388,30.948,35.31,36.235v36.727
	c-10.49-2.207-17.655-8.015-17.655-13.376c0-4.879-3.948-8.828-8.828-8.828s-8.828,3.948-8.828,8.828
	c0,15.741,14.932,28.483,35.31,31.373v0.627c0,4.879,3.948,8.828,8.828,8.828c4.879,0,8.828-3.948,8.828-8.828v-0.627
	c20.38-2.891,35.31-15.633,35.31-31.373C414.897,360.646,395.509,351.948,379.586,346.661z M344.276,323.31
	c0-5.361,7.165-11.169,17.655-13.376v30.751C348.78,335.538,344.276,330.831,344.276,323.31z M379.586,396.274v-30.752
	c13.151,5.148,17.655,9.854,17.655,17.375C397.241,388.258,390.076,394.066,379.586,396.274z"/>
<path style="fill:#FFC850;" d="M123.586,70.621h35.31c-4.875,0-8.828-3.953-8.828-8.828v-35.31c0-4.875,3.953-8.828,8.828-8.828
	H44.138c-4.875,0-8.828,3.953-8.828,8.828v35.31c0,4.875,3.953,8.828,8.828,8.828H8.828C3.953,70.621,0,74.573,0,79.448v35.31
	c0,4.875,3.953,8.828,8.828,8.828h17.655c-4.875,0-8.828,3.953-8.828,8.828v35.31c0,4.875,3.953,8.828,8.828,8.828H8.828
	c-4.875,0-8.828,3.953-8.828,8.828v35.31c0,4.875,3.953,8.828,8.828,8.828h35.31c-4.875,0-8.828,3.953-8.828,8.828v35.31
	c0,4.875,3.953,8.828,8.828,8.828H8.828c-4.875,0-8.828,3.953-8.828,8.828v35.31c0,4.875,3.953,8.828,8.828,8.828h17.655
	c-4.875,0-8.828,3.953-8.828,8.828v35.31c0,4.875,3.953,8.828,8.828,8.828H8.828c-4.875,0-8.828,3.953-8.828,8.828v35.31
	c0,4.875,3.953,8.828,8.828,8.828h35.31c-4.875,0-8.828,3.953-8.828,8.828v35.31c0,4.875,3.953,8.828,8.828,8.828h114.759
	c-4.875,0-8.828-3.953-8.828-8.828v-35.31c0-4.875,3.953-8.828,8.828-8.828h-35.31c-4.875,0-8.828-3.953-8.828-8.828v-35.31
	c0-4.875,3.953-8.828,8.828-8.828h17.655c-4.875,0-8.828-3.953-8.828-8.828v-35.31c0-4.875,3.953-8.828,8.828-8.828h-17.655
	c-4.875,0-8.828-3.953-8.828-8.828v-35.31c0-4.875,3.953-8.828,8.828-8.828h35.31c-4.875,0-8.828-3.953-8.828-8.828v-35.31
	c0-4.875,3.953-8.828,8.828-8.828h-35.31c-4.875,0-8.828-3.953-8.828-8.828v-35.31c0-4.875,3.953-8.828,8.828-8.828h17.655
	c-4.875,0-8.828-3.953-8.828-8.828v-35.31c0-4.875,3.953-8.828,8.828-8.828h-17.655c-4.875,0-8.828-3.953-8.828-8.828v-35.31
	C114.759,74.573,118.711,70.621,123.586,70.621z"/>
<path style="fill:#FFF082;" d="M282.483,70.621h-17.655c-4.875,0-8.828-3.953-8.828-8.828v-35.31c0-4.875,3.953-8.828,8.828-8.828
	h17.655c4.875,0,8.828,3.953,8.828,8.828v35.31C291.31,66.668,287.358,70.621,282.483,70.621z"/>
<g>
</g>
<g>
</g>
<g>
</g>
<g>
</g>
<g>
</g>
<g>
</g>
<g>
</g>
<g>
</g>
<g>
</g>
<g>
</g>
<g>
</g>
<g>
</g>
<g>
</g>
<g>
</g>
<g>
</g>
</svg>
