<?xml version="1.0" encoding="iso-8859-1"?>
<!-- Generator: Adobe Illustrator 19.0.0, SVG Export Plug-In . SVG Version: 6.00 Build 0)  -->
<svg version="1.1" id="Layer_1" xmlns="http://www.w3.org/2000/svg" xmlns:xlink="http://www.w3.org/1999/xlink" x="0px" y="0px"
	 viewBox="0 0 512 512" style="enable-background:new 0 0 512 512;" xml:space="preserve">
<rect x="101.036" y="43.338" transform="matrix(-0.9723 0.2338 -0.2338 -0.9723 571.5677 184.1881)" style="fill:#89B06C;" width="347.661" height="165.267"/>
<rect x="129.33" y="49.869" transform="matrix(-0.9723 0.2338 -0.2338 -0.9723 628.8937 190.4559)" style="fill:#789761;" width="347.657" height="165.267"/>
<rect x="99.922" y="64.406" transform="matrix(-0.9723 0.2338 -0.2338 -0.9723 588.7136 230.8773)" style="fill:#91B874;" width="361.5" height="171.853"/>
<path style="fill:#B2D797;" d="M440.27,157.406l-20.67-85.966c-10.664,2.565-21.39-4.005-23.951-14.665l-259.923,62.502
	c2.561,10.66-4.005,21.386-14.665,23.947l20.67,85.966c10.66-2.565,21.386,4.005,23.951,14.665l259.927-62.498
	C423.04,170.696,429.609,159.971,440.27,157.406z"/>
<ellipse transform="matrix(-0.2338 -0.9723 0.9723 -0.2338 200.1268 458.3586)" style="fill:#91B874;" cx="280.667" cy="150.325" rx="71.441" ry="60.326"/>
<path style="fill:#B2D797;" d="M286.582,205.488l-2.994-12.46c-8.881,1.718-17.97,1.411-23.648-0.274l0.241-16.289
	c6.234,1.694,14.632,2.589,23.157,0.54c7.474-1.796,11.896-5.911,10.632-11.159c-1.194-4.982-6.148-7.118-16.641-8.067
	c-15.168-1.346-26.315-5.6-29.371-18.322c-2.773-11.536,3.178-22.54,16.547-28.668l-2.994-12.456l12.853-3.093l2.773,11.536
	c8.877-1.718,15.217-1.297,20.049-0.245l-0.241,15.741c-3.755-0.622-10.509-2.189-19.954,0.082
	c-8.521,2.049-10.394,6.39-9.511,10.059c1.039,4.328,6.292,5.977,18.449,7.49c16.927,1.759,24.953,7.453,27.788,19.255
	c2.806,11.675-3.056,23.62-17.504,29.874l3.215,13.372L286.582,205.488z"/>
<g>
	<circle style="fill:#91B874;" cx="169.879" cy="176.963" r="21.926"/>
	<circle style="fill:#91B874;" cx="391.439" cy="123.661" r="21.926"/>
</g>
<path style="fill:#654A34;" d="M512,479.172c0,15.377-12.464,27.841-27.837,27.841H56.292c-15.373,0-27.837-12.464-27.837-27.841
	V139.824c0-15.377,12.464-27.841,27.837-27.841h427.871c15.373,0,27.837,12.464,27.837,27.841V479.172z"/>
<g style="opacity:0.2;">
	<path style="fill:#936B49;" d="M453.924,436.003c0,11.462-9.294,20.752-20.756,20.752H107.287c-11.462,0-20.756-9.29-20.756-20.752
		V182.989c0-11.462,9.294-20.752,20.756-20.752h325.881c11.462,0,20.756,9.29,20.756,20.752V436.003z"/>
</g>
<path style="fill:#936B49;" d="M436.919,483.467h-4.058c-2.258,0-4.091-1.829-4.091-4.091c0-2.262,1.833-4.091,4.091-4.091h4.058
	c2.258,0,4.091,1.829,4.091,4.091C441.01,481.638,439.177,483.467,436.919,483.467z M408.505,483.467h-4.062
	c-2.258,0-4.091-1.829-4.091-4.091c0-2.262,1.833-4.091,4.091-4.091h4.062c2.258,0,4.091,1.829,4.091,4.091
	C412.596,481.638,410.763,483.467,408.505,483.467z M380.091,483.467h-4.058c-2.258,0-4.091-1.829-4.091-4.091
	c0-2.262,1.833-4.091,4.091-4.091h4.058c2.258,0,4.091,1.829,4.091,4.091C384.182,481.638,382.349,483.467,380.091,483.467z
	 M351.677,483.467h-4.062c-2.258,0-4.091-1.829-4.091-4.091c0-2.262,1.833-4.091,4.091-4.091h4.062c2.258,0,4.091,1.829,4.091,4.091
	C355.768,481.638,353.935,483.467,351.677,483.467z M323.259,483.467h-4.058c-2.258,0-4.091-1.829-4.091-4.091
	c0-2.262,1.833-4.091,4.091-4.091h4.058c2.258,0,4.091,1.829,4.091,4.091C327.35,481.638,325.521,483.467,323.259,483.467z
	 M294.849,483.467h-4.058c-2.258,0-4.091-1.829-4.091-4.091c0-2.262,1.833-4.091,4.091-4.091h4.058c2.258,0,4.091,1.829,4.091,4.091
	C298.94,481.638,297.107,483.467,294.849,483.467z M266.431,483.467h-4.058c-2.258,0-4.091-1.829-4.091-4.091
	c0-2.262,1.833-4.091,4.091-4.091h4.058c2.258,0,4.091,1.829,4.091,4.091C270.522,481.638,268.693,483.467,266.431,483.467z
	 M238.021,483.467h-4.058c-2.258,0-4.091-1.829-4.091-4.091c0-2.262,1.833-4.091,4.091-4.091h4.058c2.258,0,4.091,1.829,4.091,4.091
	C242.112,481.638,240.279,483.467,238.021,483.467z M209.603,483.467h-4.058c-2.258,0-4.091-1.829-4.091-4.091
	c0-2.262,1.833-4.091,4.091-4.091h4.058c2.258,0,4.091,1.829,4.091,4.091C213.694,481.638,211.865,483.467,209.603,483.467z
	 M181.189,483.467h-4.058c-2.258,0-4.091-1.829-4.091-4.091c0-2.262,1.833-4.091,4.091-4.091h4.058c2.258,0,4.091,1.829,4.091,4.091
	C185.28,481.638,183.451,483.467,181.189,483.467z M152.775,483.467h-4.058c-2.258,0-4.091-1.829-4.091-4.091
	c0-2.262,1.833-4.091,4.091-4.091h4.058c2.258,0,4.091,1.829,4.091,4.091C156.866,481.638,155.033,483.467,152.775,483.467z
	 M124.361,483.467h-4.058c-2.258,0-4.091-1.829-4.091-4.091c0-2.262,1.833-4.091,4.091-4.091h4.058c2.258,0,4.091,1.829,4.091,4.091
	C128.452,481.638,126.623,483.467,124.361,483.467z M95.947,483.467h-4.058c-2.258,0-4.091-1.829-4.091-4.091
	c0-2.262,1.833-4.091,4.091-4.091h4.058c2.258,0,4.091,1.829,4.091,4.091C100.038,481.638,98.205,483.467,95.947,483.467z
	 M461.226,482.919c-1.886,0-3.579-1.309-3.997-3.232c-0.474-2.205,0.929-4.381,3.138-4.86c1.08-0.233,2.156-0.565,3.199-0.986
	c2.094-0.851,4.479,0.16,5.326,2.254c0.851,2.099-0.164,4.483-2.254,5.33c-1.477,0.597-3.007,1.072-4.549,1.403
	C461.803,482.89,461.513,482.919,461.226,482.919z M68.883,477.818c-0.937,0-1.874-0.319-2.643-0.969
	c-1.211-1.023-2.336-2.152-3.346-3.354c-1.452-1.726-1.231-4.308,0.495-5.76c1.726-1.456,4.308-1.239,5.764,0.495
	c0.716,0.847,1.518,1.649,2.377,2.381c1.722,1.456,1.939,4.038,0.479,5.764C71.199,477.327,70.045,477.818,68.883,477.818z
	 M479.728,463.566c-0.225,0-0.454-0.02-0.683-0.057c-2.225-0.376-3.731-2.487-3.35-4.712c0.184-1.109,0.278-2.238,0.278-3.363
	c0-2.262,1.833-4.23,4.091-4.23c2.258,0,4.091,1.685,4.091,3.947v0.282c0,1.583-0.131,3.17-0.397,4.721
	C483.422,462.154,481.692,463.566,479.728,463.566z M60.391,451.936c-2.258,0-4.091-1.829-4.091-4.091v-4.058
	c0-2.262,1.833-4.091,4.091-4.091s4.091,1.829,4.091,4.091v4.058C64.482,450.103,62.649,451.936,60.391,451.936z M480.064,434.886
	c-2.258,0-4.091-1.829-4.091-4.091v-4.058c0-2.262,1.833-4.091,4.091-4.091c2.258,0,4.091,1.829,4.091,4.091v4.058
	C484.155,433.053,482.322,434.886,480.064,434.886z M60.391,423.518c-2.258,0-4.091-1.829-4.091-4.091v-4.058
	c0-2.262,1.833-4.091,4.091-4.091s4.091,1.829,4.091,4.091v4.058C64.482,421.689,62.649,423.518,60.391,423.518z M480.064,406.468
	c-2.258,0-4.091-1.829-4.091-4.091v-4.058c0-2.262,1.833-4.091,4.091-4.091c2.258,0,4.091,1.829,4.091,4.091v4.058
	C484.155,404.639,482.322,406.468,480.064,406.468z M60.391,395.108c-2.258,0-4.091-1.829-4.091-4.091v-4.058
	c0-2.262,1.833-4.091,4.091-4.091s4.091,1.829,4.091,4.091v4.058C64.482,393.279,62.649,395.108,60.391,395.108z M480.064,378.058
	c-2.258,0-4.091-1.829-4.091-4.091v-4.058c0-2.262,1.833-4.091,4.091-4.091c2.258,0,4.091,1.829,4.091,4.091v4.058
	C484.155,376.229,482.322,378.058,480.064,378.058z M60.391,366.694c-2.258,0-4.091-1.829-4.091-4.091v-4.058
	c0-2.262,1.833-4.091,4.091-4.091s4.091,1.829,4.091,4.091v4.058C64.482,364.861,62.649,366.694,60.391,366.694z M480.064,349.644
	c-2.258,0-4.091-1.829-4.091-4.091v-4.062c0-2.262,1.833-4.091,4.091-4.091c2.258,0,4.091,1.829,4.091,4.091v4.058
	C484.155,347.811,482.322,349.644,480.064,349.644z M60.391,338.276c-2.258,0-4.091-1.829-4.091-4.091v-4.058
	c0-2.262,1.833-4.091,4.091-4.091s4.091,1.829,4.091,4.091v4.058C64.482,336.447,62.649,338.276,60.391,338.276z M480.064,321.226
	c-2.258,0-4.091-1.829-4.091-4.091v-4.058c0-2.262,1.833-4.091,4.091-4.091c2.258,0,4.091,1.829,4.091,4.091v4.058
	C484.155,319.397,482.322,321.226,480.064,321.226z M60.391,309.862c-2.258,0-4.091-1.829-4.091-4.091v-4.058
	c0-2.262,1.833-4.091,4.091-4.091s4.091,1.829,4.091,4.091v4.058C64.482,308.033,62.649,309.862,60.391,309.862z M480.064,292.812
	c-2.258,0-4.091-1.829-4.091-4.091v-4.058c0-2.262,1.833-4.091,4.091-4.091c2.258,0,4.091,1.829,4.091,4.091v4.058
	C484.155,290.983,482.322,292.812,480.064,292.812z M60.391,281.452c-2.258,0-4.091-1.829-4.091-4.091v-4.058
	c0-2.262,1.833-4.091,4.091-4.091s4.091,1.829,4.091,4.091v4.058C64.482,279.619,62.649,281.452,60.391,281.452z M480.064,264.402
	c-2.258,0-4.091-1.829-4.091-4.091v-4.058c0-2.262,1.833-4.091,4.091-4.091c2.258,0,4.091,1.829,4.091,4.091v4.058
	C484.155,262.573,482.322,264.402,480.064,264.402z M60.391,253.034c-2.258,0-4.091-1.829-4.091-4.091v-4.058
	c0-2.262,1.833-4.091,4.091-4.091s4.091,1.829,4.091,4.091v4.058C64.482,251.205,62.649,253.034,60.391,253.034z M480.064,235.984
	c-2.258,0-4.091-1.829-4.091-4.091v-4.058c0-2.262,1.833-4.091,4.091-4.091c2.258,0,4.091,1.829,4.091,4.091v4.058
	C484.155,234.155,482.322,235.984,480.064,235.984z M60.391,224.62c-2.258,0-4.091-1.829-4.091-4.091v-4.058
	c0-2.262,1.833-4.091,4.091-4.091s4.091,1.829,4.091,4.091v4.058C64.482,222.791,62.649,224.62,60.391,224.62z M480.064,207.57
	c-2.258,0-4.091-1.829-4.091-4.091v-4.058c0-2.262,1.833-4.091,4.091-4.091c2.258,0,4.091,1.829,4.091,4.091v4.058
	C484.155,205.741,482.322,207.57,480.064,207.57z M60.391,196.206c-2.258,0-4.091-1.829-4.091-4.091v-4.058
	c0-2.262,1.833-4.091,4.091-4.091s4.091,1.829,4.091,4.091v4.058C64.482,194.377,62.649,196.206,60.391,196.206z M480.064,179.16
	c-2.258,0-4.091-1.829-4.091-4.091v-4.062c0-2.262,1.833-4.091,4.091-4.091c2.258,0,4.091,1.829,4.091,4.091v4.062
	C484.155,177.331,482.322,179.16,480.064,179.16z M60.391,167.726c-2.258,0-4.091-1.763-4.091-4.021v-0.139
	c0-1.53,0.123-3.064,0.368-4.561c0.364-2.229,2.45-3.743,4.696-3.379c2.229,0.368,3.743,2.471,3.375,4.696
	c-0.172,1.064-0.262,2.152-0.262,3.244C64.482,165.824,62.649,167.726,60.391,167.726z M474.345,152.12
	c-1.158,0-2.307-0.487-3.117-1.44c-0.724-0.851-1.526-1.644-2.385-2.364c-1.734-1.448-1.968-4.025-0.52-5.76
	c1.448-1.743,4.025-1.964,5.76-0.52c1.215,1.015,2.352,2.135,3.375,3.338c1.464,1.722,1.256,4.303-0.466,5.768
	C476.223,151.797,475.282,152.12,474.345,152.12z M75.22,145.506c-1.608,0-3.133-0.953-3.784-2.532
	c-0.863-2.09,0.135-4.479,2.221-5.342c1.477-0.605,3.003-1.092,4.541-1.432c2.205-0.466,4.389,0.908,4.88,3.109
	c0.487,2.209-0.904,4.389-3.109,4.88c-1.076,0.241-2.152,0.577-3.191,1.006C76.267,145.408,75.739,145.506,75.22,145.506z
	 M448.422,143.71h-4.062c-2.258,0-4.091-1.829-4.091-4.091c0-2.262,1.833-4.091,4.091-4.091h4.062c2.258,0,4.091,1.829,4.091,4.091
	C452.513,141.881,450.68,143.71,448.422,143.71z M420.008,143.71h-4.058c-2.258,0-4.091-1.829-4.091-4.091
	c0-2.262,1.833-4.091,4.091-4.091h4.058c2.258,0,4.091,1.829,4.091,4.091C424.099,141.881,422.266,143.71,420.008,143.71z
	 M391.594,143.71h-4.062c-2.258,0-4.091-1.829-4.091-4.091c0-2.262,1.833-4.091,4.091-4.091h4.062c2.258,0,4.091,1.829,4.091,4.091
	C395.685,141.881,393.852,143.71,391.594,143.71z M363.18,143.71h-4.058c-2.258,0-4.091-1.829-4.091-4.091
	c0-2.262,1.833-4.091,4.091-4.091h4.058c2.258,0,4.091,1.829,4.091,4.091C367.271,141.881,365.438,143.71,363.18,143.71z
	 M334.766,143.71h-4.058c-2.258,0-4.091-1.829-4.091-4.091c0-2.262,1.833-4.091,4.091-4.091h4.058c2.258,0,4.091,1.829,4.091,4.091
	C338.857,141.881,337.024,143.71,334.766,143.71z M306.352,143.71h-4.058c-2.258,0-4.091-1.829-4.091-4.091
	c0-2.262,1.833-4.091,4.091-4.091h4.058c2.258,0,4.091,1.829,4.091,4.091C310.443,141.881,308.61,143.71,306.352,143.71z
	 M277.938,143.71h-4.058c-2.258,0-4.091-1.829-4.091-4.091c0-2.262,1.833-4.091,4.091-4.091h4.058c2.258,0,4.091,1.829,4.091,4.091
	C282.029,141.881,280.196,143.71,277.938,143.71z M249.524,143.71h-4.058c-2.258,0-4.091-1.829-4.091-4.091
	c0-2.262,1.833-4.091,4.091-4.091h4.058c2.258,0,4.091,1.829,4.091,4.091C253.615,141.881,251.782,143.71,249.524,143.71z
	 M221.11,143.71h-4.058c-2.258,0-4.091-1.829-4.091-4.091c0-2.262,1.833-4.091,4.091-4.091h4.058c2.258,0,4.091,1.829,4.091,4.091
	C225.201,141.881,223.368,143.71,221.11,143.71z M192.692,143.71h-4.058c-2.258,0-4.091-1.829-4.091-4.091
	c0-2.262,1.833-4.091,4.091-4.091h4.058c2.258,0,4.091,1.829,4.091,4.091C196.783,141.881,194.954,143.71,192.692,143.71z
	 M164.282,143.71h-4.058c-2.258,0-4.091-1.829-4.091-4.091c0-2.262,1.833-4.091,4.091-4.091h4.058c2.258,0,4.091,1.829,4.091,4.091
	C168.373,141.881,166.541,143.71,164.282,143.71z M135.864,143.71h-4.058c-2.258,0-4.091-1.829-4.091-4.091
	c0-2.262,1.833-4.091,4.091-4.091h4.058c2.258,0,4.091,1.829,4.091,4.091C139.955,141.881,138.127,143.71,135.864,143.71z
	 M107.454,143.71h-4.058c-2.258,0-4.091-1.829-4.091-4.091c0-2.262,1.833-4.091,4.091-4.091h4.058c2.258,0,4.091,1.829,4.091,4.091
	C111.545,141.881,109.713,143.71,107.454,143.71z"/>
<path style="fill:#8D5F39;" d="M153.287,245.74H15.774C7.065,245.74,0,252.805,0,261.518v95.96c0,8.713,7.065,15.774,15.774,15.774
	h137.513c35.213,0,63.754-28.545,63.754-63.754S188.499,245.74,153.287,245.74z"/>
<circle style="fill:#654A34;" cx="153.139" cy="309.502" r="32.574"/>
<g>
</g>
<g>
</g>
<g>
</g>
<g>
</g>
<g>
</g>
<g>
</g>
<g>
</g>
<g>
</g>
<g>
</g>
<g>
</g>
<g>
</g>
<g>
</g>
<g>
</g>
<g>
</g>
<g>
</g>
</svg>
